<svg xmlns="http://www.w3.org/2000/svg" xmlns:xlink="http://www.w3.org/1999/xlink" width="500" zoomAndPan="magnify" viewBox="0 0 375 374.999991" height="500" preserveAspectRatio="xMidYMid meet" version="1.0"><defs><g/><clipPath id="id1"><path d="M 0 11.625 L 311 11.625 L 311 233.550781 L 0 233.550781 Z M 0 11.625 " clip-rule="nonzero"/></clipPath></defs><path fill="#000000" d="M 86.90625 218.367188 C 46.824219 218.367188 14.21875 185.996094 14.21875 146.105469 C 14.21875 132.078125 18.222656 118.515625 25.804688 106.792969 C 33.308594 95.1875 44.078125 86.007812 56.9375 80.207031 C 57.910156 79.773438 58.636719 79.058594 59.046875 78.132812 C 65.957031 62.472656 77.125 49.296875 91.335938 40.027344 C 105.5625 30.75 122.183594 25.84375 139.410156 25.84375 C 164.785156 25.84375 188.90625 36.808594 205.582031 55.9375 C 206.375 56.847656 207.527344 57.375 208.730469 57.375 C 208.769531 57.375 208.90625 57.375 208.953125 57.371094 C 210.265625 57.308594 211.617188 57.28125 212.957031 57.28125 C 259.058594 57.28125 296.570312 93.601562 296.570312 138.246094 C 296.570312 140.800781 294.492188 142.890625 291.929688 142.890625 C 289.375 142.890625 287.292969 140.808594 287.292969 138.246094 C 287.292969 98.714844 253.949219 66.558594 212.960938 66.558594 C 210.40625 66.558594 207.828125 66.683594 205.300781 66.933594 L 202.773438 67.183594 L 201.203125 65.183594 C 186.175781 46.085938 163.65625 35.136719 139.417969 35.136719 C 106.921875 35.136719 78.226562 54.671875 66.296875 84.921875 L 65.554688 86.792969 L 63.679688 87.535156 C 39.28125 97.15625 23.511719 120.359375 23.511719 146.753906 C 23.511719 181.871094 51.957031 210.375 86.921875 210.375 L 258.53125 210.375 C 260.765625 210.375 263.171875 211.609375 263.171875 214.371094 C 263.171875 217.132812 260.769531 218.367188 258.53125 218.367188 Z M 86.90625 218.367188 " fill-opacity="1" fill-rule="nonzero"/><g clip-path="url(#id1)"><path fill="#000000" d="M 213.066406 43.0625 C 193.878906 23.054688 167.21875 11.636719 139.410156 11.636719 C 100.386719 11.636719 64.636719 34.070312 47.640625 68.996094 C 18.1875 83.8125 0 113.316406 0 146.546875 C 0 194.464844 38.988281 233.46875 86.90625 233.46875 L 258.515625 233.46875 C 268.917969 233.46875 277.371094 224.773438 277.371094 214.371094 C 277.371094 203.972656 268.910156 195.28125 258.515625 195.28125 L 86.90625 195.28125 C 59.789062 195.28125 37.722656 173.4375 37.722656 146.3125 C 37.722656 125.972656 49.960938 108.117188 68.890625 100.652344 L 76.511719 97.703125 L 79.515625 90.105469 C 89.285156 65.332031 112.796875 49.339844 139.417969 49.339844 C 159.261719 49.339844 177.714844 58.324219 190.023438 73.96875 L 196.414062 82.09375 L 206.691406 81.078125 C 208.761719 80.875 210.871094 80.777344 212.957031 80.777344 C 246.101562 80.777344 273.066406 106.558594 273.066406 138.246094 C 273.066406 148.648438 281.527344 157.109375 291.929688 157.109375 C 302.328125 157.109375 310.785156 148.648438 310.785156 138.246094 C 310.785156 85.796875 266.957031 43.121094 213.066406 43.0625 Z M 291.929688 150.410156 C 285.222656 150.410156 279.765625 144.953125 279.765625 138.246094 C 279.765625 102.863281 249.796875 74.085938 212.957031 74.085938 C 210.648438 74.085938 208.320312 74.203125 206.035156 74.425781 L 199.402344 75.078125 L 195.28125 69.839844 C 181.6875 52.574219 161.328125 42.664062 139.410156 42.664062 C 110.027344 42.664062 84.070312 60.335938 73.289062 87.683594 L 71.351562 92.597656 L 66.429688 94.535156 C 44.921875 103.011719 31.027344 123.410156 31.027344 146.515625 C 31.027344 177.328125 56.09375 202.382812 86.90625 202.382812 L 258.515625 202.382812 C 265.222656 202.382812 270.679688 207.664062 270.679688 214.371094 C 270.679688 221.078125 265.222656 226.367188 258.515625 226.367188 L 86.90625 226.367188 C 42.675781 226.367188 6.699219 190.574219 6.699219 146.347656 C 6.699219 114.816406 24.28125 87.234375 52.6875 73.894531 C 68.160156 40.035156 102.066406 18.285156 139.410156 18.285156 C 166.425781 18.285156 192.125 29.75 210.1875 49.773438 C 211.113281 49.746094 212.03125 49.746094 212.957031 49.746094 C 263.210938 49.746094 304.09375 89.445312 304.09375 138.246094 C 304.09375 144.953125 298.636719 150.410156 291.929688 150.410156 Z M 291.929688 150.410156 " fill-opacity="1" fill-rule="nonzero"/></g><path fill="#000000" d="M 352.019531 117.320312 C 352.019531 118.226562 351.929688 119.125 351.753906 120.011719 C 351.578125 120.902344 351.316406 121.765625 350.96875 122.601562 C 350.621094 123.4375 350.195312 124.234375 349.691406 124.988281 C 349.191406 125.742188 348.617188 126.4375 347.976562 127.078125 C 347.335938 127.71875 346.640625 128.292969 345.886719 128.796875 C 345.132812 129.300781 344.335938 129.722656 343.5 130.070312 C 342.660156 130.417969 341.800781 130.679688 340.910156 130.855469 C 340.019531 131.035156 339.125 131.121094 338.21875 131.121094 C 337.3125 131.121094 336.414062 131.035156 335.523438 130.855469 C 334.636719 130.679688 333.773438 130.417969 332.9375 130.070312 C 332.097656 129.722656 331.304688 129.300781 330.550781 128.796875 C 329.796875 128.292969 329.097656 127.71875 328.457031 127.078125 C 327.816406 126.4375 327.246094 125.742188 326.742188 124.988281 C 326.238281 124.234375 325.8125 123.4375 325.46875 122.601562 C 325.121094 121.765625 324.859375 120.902344 324.679688 120.011719 C 324.503906 119.125 324.417969 118.226562 324.417969 117.320312 C 324.417969 116.414062 324.503906 115.515625 324.679688 114.628906 C 324.859375 113.738281 325.121094 112.875 325.46875 112.039062 C 325.8125 111.203125 326.238281 110.40625 326.742188 109.652344 C 327.246094 108.898438 327.816406 108.203125 328.457031 107.5625 C 329.097656 106.921875 329.796875 106.347656 330.550781 105.84375 C 331.304688 105.339844 332.097656 104.917969 332.9375 104.570312 C 333.773438 104.222656 334.636719 103.960938 335.523438 103.785156 C 336.414062 103.605469 337.3125 103.519531 338.21875 103.519531 C 339.125 103.519531 340.019531 103.605469 340.910156 103.785156 C 341.800781 103.960938 342.660156 104.222656 343.5 104.570312 C 344.335938 104.917969 345.132812 105.339844 345.886719 105.84375 C 346.640625 106.347656 347.335938 106.921875 347.976562 107.5625 C 348.617188 108.203125 349.191406 108.898438 349.691406 109.652344 C 350.195312 110.40625 350.621094 111.203125 350.96875 112.039062 C 351.316406 112.875 351.578125 113.738281 351.753906 114.628906 C 351.929688 115.515625 352.019531 116.414062 352.019531 117.320312 Z M 352.019531 117.320312 " fill-opacity="1" fill-rule="nonzero"/><path fill="#000000" d="M 361.960938 141.253906 C 362.472656 141.617188 362.941406 142.023438 363.371094 142.480469 C 363.804688 142.9375 364.1875 143.429688 364.519531 143.960938 C 364.851562 144.492188 365.132812 145.054688 365.355469 145.640625 C 365.578125 146.226562 365.742188 146.828125 365.847656 147.445312 C 365.953125 148.066406 365.996094 148.6875 365.980469 149.316406 C 365.960938 149.941406 365.882812 150.5625 365.742188 151.171875 C 365.601562 151.785156 365.402344 152.378906 365.148438 152.949219 C 364.890625 153.523438 364.582031 154.066406 364.21875 154.578125 C 363.855469 155.085938 363.445312 155.558594 362.988281 155.988281 C 362.53125 156.421875 362.039062 156.804688 361.507812 157.136719 C 360.976562 157.46875 360.417969 157.75 359.832031 157.972656 C 359.246094 158.195312 358.640625 158.359375 358.023438 158.464844 C 357.40625 158.570312 356.78125 158.613281 356.15625 158.597656 C 355.527344 158.578125 354.910156 158.5 354.296875 158.359375 C 353.683594 158.21875 353.09375 158.019531 352.519531 157.765625 C 351.949219 157.507812 351.40625 157.199219 350.894531 156.835938 C 350.382812 156.472656 349.910156 156.0625 349.480469 155.605469 C 349.050781 155.148438 348.667969 154.65625 348.332031 154.125 C 348 153.59375 347.722656 153.035156 347.496094 152.449219 C 347.273438 151.863281 347.109375 151.257812 347.003906 150.640625 C 346.898438 150.023438 346.855469 149.398438 346.875 148.773438 C 346.890625 148.144531 346.972656 147.527344 347.109375 146.914062 C 347.25 146.300781 347.449219 145.710938 347.707031 145.136719 C 347.960938 144.566406 348.273438 144.023438 348.636719 143.511719 C 349 143 349.410156 142.527344 349.863281 142.097656 C 350.320312 141.667969 350.8125 141.285156 351.34375 140.949219 C 351.878906 140.617188 352.4375 140.339844 353.023438 140.113281 C 353.609375 139.890625 354.210938 139.726562 354.828125 139.621094 C 355.449219 139.515625 356.070312 139.472656 356.699219 139.492188 C 357.324219 139.507812 357.945312 139.589844 358.554688 139.726562 C 359.167969 139.867188 359.761719 140.066406 360.332031 140.324219 C 360.90625 140.578125 361.449219 140.890625 361.960938 141.253906 Z M 361.960938 141.253906 " fill-opacity="1" fill-rule="nonzero"/><path fill="#000000" d="M 356.234375 182.847656 C 356.234375 183.535156 356.167969 184.214844 356.035156 184.890625 C 355.898438 185.5625 355.699219 186.21875 355.4375 186.855469 C 355.175781 187.488281 354.851562 188.09375 354.46875 188.664062 C 354.085938 189.238281 353.652344 189.765625 353.167969 190.253906 C 352.679688 190.738281 352.152344 191.171875 351.578125 191.554688 C 351.007812 191.9375 350.40625 192.261719 349.769531 192.523438 C 349.132812 192.785156 348.480469 192.984375 347.804688 193.121094 C 347.128906 193.253906 346.449219 193.320312 345.761719 193.320312 C 345.074219 193.320312 344.390625 193.253906 343.71875 193.121094 C 343.042969 192.984375 342.386719 192.785156 341.753906 192.523438 C 341.117188 192.261719 340.515625 191.9375 339.941406 191.554688 C 339.371094 191.171875 338.839844 190.738281 338.355469 190.253906 C 337.867188 189.765625 337.433594 189.238281 337.050781 188.664062 C 336.671875 188.09375 336.347656 187.488281 336.085938 186.855469 C 335.820312 186.21875 335.621094 185.5625 335.488281 184.890625 C 335.355469 184.214844 335.285156 183.535156 335.285156 182.847656 C 335.285156 182.160156 335.355469 181.476562 335.488281 180.804688 C 335.621094 180.128906 335.820312 179.472656 336.085938 178.839844 C 336.347656 178.203125 336.671875 177.597656 337.050781 177.027344 C 337.433594 176.457031 337.867188 175.925781 338.355469 175.441406 C 338.839844 174.953125 339.371094 174.519531 339.941406 174.136719 C 340.515625 173.753906 341.117188 173.433594 341.753906 173.167969 C 342.386719 172.90625 343.042969 172.707031 343.71875 172.574219 C 344.390625 172.4375 345.074219 172.371094 345.761719 172.371094 C 346.449219 172.371094 347.128906 172.4375 347.804688 172.574219 C 348.480469 172.707031 349.132812 172.90625 349.769531 173.167969 C 350.40625 173.433594 351.007812 173.753906 351.578125 174.136719 C 352.152344 174.519531 352.679688 174.953125 353.167969 175.441406 C 353.652344 175.925781 354.085938 176.457031 354.46875 177.027344 C 354.851562 177.597656 355.175781 178.203125 355.4375 178.839844 C 355.699219 179.472656 355.898438 180.128906 356.035156 180.804688 C 356.167969 181.476562 356.234375 182.160156 356.234375 182.847656 Z M 356.234375 182.847656 " fill-opacity="1" fill-rule="nonzero"/><path fill="#000000" d="M 318.101562 161.535156 C 318.574219 161.613281 319.039062 161.734375 319.488281 161.902344 C 319.9375 162.070312 320.367188 162.277344 320.777344 162.53125 C 321.183594 162.785156 321.566406 163.074219 321.917969 163.402344 C 322.269531 163.726562 322.585938 164.085938 322.867188 164.476562 C 323.148438 164.867188 323.386719 165.277344 323.585938 165.714844 C 323.785156 166.152344 323.941406 166.605469 324.050781 167.070312 C 324.164062 167.539062 324.226562 168.011719 324.246094 168.492188 C 324.261719 168.972656 324.230469 169.449219 324.15625 169.925781 C 324.078125 170.398438 323.957031 170.859375 323.789062 171.3125 C 323.621094 171.761719 323.410156 172.191406 323.160156 172.597656 C 322.90625 173.007812 322.617188 173.386719 322.289062 173.738281 C 321.960938 174.089844 321.605469 174.40625 321.214844 174.6875 C 320.824219 174.96875 320.410156 175.210938 319.976562 175.410156 C 319.539062 175.609375 319.085938 175.765625 318.617188 175.875 C 318.152344 175.988281 317.675781 176.050781 317.195312 176.066406 C 316.71875 176.085938 316.238281 176.054688 315.765625 175.980469 C 315.292969 175.902344 314.828125 175.78125 314.378906 175.613281 C 313.929688 175.445312 313.5 175.234375 313.089844 174.980469 C 312.683594 174.730469 312.300781 174.441406 311.949219 174.113281 C 311.597656 173.785156 311.28125 173.425781 311 173.039062 C 310.71875 172.648438 310.480469 172.234375 310.28125 171.796875 C 310.082031 171.363281 309.925781 170.910156 309.8125 170.441406 C 309.703125 169.972656 309.640625 169.5 309.621094 169.019531 C 309.605469 168.539062 309.636719 168.0625 309.710938 167.589844 C 309.789062 167.113281 309.910156 166.652344 310.078125 166.203125 C 310.246094 165.753906 310.457031 165.324219 310.707031 164.914062 C 310.960938 164.503906 311.25 164.125 311.578125 163.773438 C 311.90625 163.421875 312.261719 163.105469 312.652344 162.824219 C 313.042969 162.542969 313.453125 162.304688 313.890625 162.101562 C 314.328125 161.902344 314.78125 161.75 315.25 161.636719 C 315.714844 161.527344 316.191406 161.464844 316.667969 161.445312 C 317.148438 161.429688 317.625 161.457031 318.101562 161.535156 Z M 318.101562 161.535156 " fill-opacity="1" fill-rule="nonzero"/><path fill="#000000" d="M 314.125 197.777344 C 314.125 198.457031 314.058594 199.125 313.929688 199.789062 C 313.796875 200.453125 313.601562 201.097656 313.339844 201.722656 C 313.082031 202.347656 312.765625 202.941406 312.390625 203.503906 C 312.011719 204.066406 311.585938 204.585938 311.109375 205.066406 C 310.628906 205.542969 310.109375 205.972656 309.546875 206.347656 C 308.984375 206.722656 308.390625 207.039062 307.765625 207.300781 C 307.140625 207.558594 306.496094 207.753906 305.832031 207.886719 C 305.167969 208.019531 304.496094 208.085938 303.820312 208.085938 C 303.144531 208.085938 302.472656 208.019531 301.808594 207.886719 C 301.148438 207.753906 300.503906 207.558594 299.878906 207.300781 C 299.253906 207.039062 298.65625 206.722656 298.09375 206.347656 C 297.53125 205.972656 297.011719 205.542969 296.535156 205.066406 C 296.054688 204.585938 295.628906 204.066406 295.253906 203.503906 C 294.875 202.941406 294.558594 202.347656 294.300781 201.722656 C 294.042969 201.097656 293.84375 200.453125 293.714844 199.789062 C 293.582031 199.125 293.515625 198.457031 293.515625 197.777344 C 293.515625 197.101562 293.582031 196.433594 293.714844 195.769531 C 293.84375 195.105469 294.042969 194.460938 294.300781 193.835938 C 294.558594 193.210938 294.875 192.617188 295.253906 192.054688 C 295.628906 191.492188 296.054688 190.96875 296.535156 190.492188 C 297.011719 190.011719 297.53125 189.585938 298.09375 189.210938 C 298.65625 188.835938 299.253906 188.515625 299.878906 188.257812 C 300.503906 188 301.148438 187.804688 301.808594 187.671875 C 302.472656 187.539062 303.144531 187.472656 303.820312 187.472656 C 304.496094 187.472656 305.167969 187.539062 305.832031 187.671875 C 306.496094 187.804688 307.140625 188 307.765625 188.257812 C 308.390625 188.515625 308.984375 188.835938 309.546875 189.210938 C 310.109375 189.585938 310.628906 190.011719 311.109375 190.492188 C 311.585938 190.96875 312.011719 191.492188 312.390625 192.054688 C 312.765625 192.617188 313.082031 193.210938 313.339844 193.835938 C 313.601562 194.460938 313.796875 195.105469 313.929688 195.769531 C 314.058594 196.433594 314.125 197.101562 314.125 197.777344 Z M 314.125 197.777344 " fill-opacity="1" fill-rule="nonzero"/><path fill="#000000" d="M 355.449219 82.582031 C 355.875 82.679688 356.285156 82.824219 356.683594 83.003906 C 357.082031 83.1875 357.460938 83.40625 357.816406 83.664062 C 358.171875 83.917969 358.496094 84.207031 358.792969 84.527344 C 359.09375 84.847656 359.355469 85.195312 359.585938 85.570312 C 359.816406 85.941406 360.007812 86.332031 360.160156 86.742188 C 360.3125 87.152344 360.425781 87.574219 360.496094 88.007812 C 360.5625 88.441406 360.589844 88.875 360.574219 89.3125 C 360.558594 89.75 360.5 90.183594 360.398438 90.609375 C 360.296875 91.035156 360.15625 91.445312 359.976562 91.84375 C 359.792969 92.242188 359.574219 92.621094 359.316406 92.976562 C 359.058594 93.328125 358.773438 93.65625 358.449219 93.953125 C 358.128906 94.253906 357.785156 94.515625 357.410156 94.746094 C 357.039062 94.976562 356.648438 95.167969 356.234375 95.320312 C 355.824219 95.472656 355.40625 95.585938 354.972656 95.652344 C 354.539062 95.722656 354.105469 95.75 353.667969 95.734375 C 353.230469 95.71875 352.796875 95.660156 352.371094 95.558594 C 351.945312 95.457031 351.535156 95.316406 351.136719 95.132812 C 350.738281 94.953125 350.359375 94.734375 350.003906 94.476562 C 349.648438 94.21875 349.324219 93.929688 349.027344 93.609375 C 348.726562 93.289062 348.464844 92.941406 348.234375 92.570312 C 348.003906 92.199219 347.8125 91.804688 347.660156 91.394531 C 347.507812 90.984375 347.394531 90.5625 347.324219 90.132812 C 347.257812 89.699219 347.230469 89.265625 347.246094 88.828125 C 347.261719 88.390625 347.320312 87.957031 347.421875 87.53125 C 347.523438 87.105469 347.664062 86.691406 347.84375 86.292969 C 348.027344 85.898438 348.246094 85.519531 348.503906 85.164062 C 348.761719 84.808594 349.046875 84.484375 349.367188 84.183594 C 349.691406 83.886719 350.035156 83.621094 350.410156 83.394531 C 350.78125 83.164062 351.171875 82.972656 351.585938 82.820312 C 351.996094 82.667969 352.414062 82.554688 352.847656 82.484375 C 353.28125 82.414062 353.714844 82.390625 354.152344 82.40625 C 354.589844 82.421875 355.023438 82.480469 355.449219 82.582031 Z M 355.449219 82.582031 " fill-opacity="1" fill-rule="nonzero"/><path fill="#000000" d="M 285.230469 176.890625 C 285.230469 177.363281 285.183594 177.835938 285.089844 178.300781 C 285 178.769531 284.859375 179.222656 284.679688 179.660156 C 284.496094 180.101562 284.273438 180.515625 284.011719 180.914062 C 283.746094 181.308594 283.445312 181.675781 283.109375 182.011719 C 282.773438 182.347656 282.40625 182.648438 282.011719 182.910156 C 281.617188 183.175781 281.199219 183.398438 280.757812 183.582031 C 280.320312 183.761719 279.867188 183.898438 279.402344 183.992188 C 278.933594 184.085938 278.464844 184.132812 277.988281 184.132812 C 277.511719 184.132812 277.042969 184.085938 276.574219 183.992188 C 276.109375 183.898438 275.65625 183.761719 275.214844 183.582031 C 274.777344 183.398438 274.359375 183.175781 273.964844 182.910156 C 273.570312 182.648438 273.203125 182.347656 272.867188 182.011719 C 272.53125 181.675781 272.230469 181.308594 271.964844 180.914062 C 271.703125 180.515625 271.480469 180.101562 271.296875 179.660156 C 271.117188 179.222656 270.976562 178.769531 270.886719 178.300781 C 270.792969 177.835938 270.746094 177.363281 270.746094 176.890625 C 270.746094 176.414062 270.792969 175.941406 270.886719 175.476562 C 270.976562 175.011719 271.117188 174.558594 271.296875 174.117188 C 271.480469 173.679688 271.703125 173.261719 271.964844 172.867188 C 272.230469 172.46875 272.53125 172.105469 272.867188 171.769531 C 273.203125 171.433594 273.570312 171.132812 273.964844 170.867188 C 274.359375 170.601562 274.777344 170.378906 275.214844 170.199219 C 275.65625 170.015625 276.109375 169.878906 276.574219 169.785156 C 277.042969 169.695312 277.511719 169.648438 277.988281 169.648438 C 278.464844 169.648438 278.933594 169.695312 279.402344 169.785156 C 279.867188 169.878906 280.320312 170.015625 280.757812 170.199219 C 281.199219 170.378906 281.617188 170.601562 282.011719 170.867188 C 282.40625 171.132812 282.773438 171.433594 283.109375 171.769531 C 283.445312 172.105469 283.746094 172.46875 284.011719 172.867188 C 284.273438 173.261719 284.496094 173.679688 284.679688 174.117188 C 284.859375 174.558594 285 175.011719 285.089844 175.476562 C 285.183594 175.941406 285.230469 176.414062 285.230469 176.890625 Z M 285.230469 176.890625 " fill-opacity="1" fill-rule="nonzero"/><path fill="#000000" d="M 367.253906 112.921875 C 367.253906 113.296875 367.179688 113.65625 367.035156 114.003906 C 366.894531 114.351562 366.6875 114.660156 366.421875 114.925781 C 366.15625 115.191406 365.851562 115.394531 365.503906 115.539062 C 365.15625 115.683594 364.792969 115.753906 364.417969 115.753906 C 364.042969 115.753906 363.679688 115.683594 363.332031 115.539062 C 362.984375 115.394531 362.679688 115.191406 362.414062 114.925781 C 362.148438 114.660156 361.941406 114.351562 361.796875 114.003906 C 361.652344 113.65625 361.582031 113.296875 361.582031 112.921875 C 361.582031 112.542969 361.652344 112.183594 361.796875 111.835938 C 361.941406 111.488281 362.148438 111.179688 362.414062 110.914062 C 362.679688 110.648438 362.984375 110.445312 363.332031 110.300781 C 363.679688 110.15625 364.042969 110.085938 364.417969 110.085938 C 364.792969 110.085938 365.15625 110.15625 365.503906 110.300781 C 365.851562 110.445312 366.15625 110.648438 366.421875 110.914062 C 366.6875 111.179688 366.894531 111.488281 367.035156 111.835938 C 367.179688 112.183594 367.253906 112.542969 367.253906 112.921875 Z M 367.253906 112.921875 " fill-opacity="1" fill-rule="nonzero"/><path fill="#000000" d="M 336.859375 149.976562 C 336.859375 150.453125 336.765625 150.914062 336.585938 151.355469 C 336.402344 151.796875 336.140625 152.1875 335.800781 152.527344 C 335.464844 152.863281 335.074219 153.125 334.632812 153.308594 C 334.191406 153.492188 333.730469 153.582031 333.253906 153.582031 C 332.773438 153.582031 332.3125 153.492188 331.871094 153.308594 C 331.429688 153.125 331.039062 152.863281 330.703125 152.527344 C 330.363281 152.1875 330.101562 151.796875 329.921875 151.355469 C 329.738281 150.914062 329.644531 150.453125 329.644531 149.976562 C 329.644531 149.5 329.738281 149.039062 329.921875 148.597656 C 330.101562 148.15625 330.363281 147.765625 330.703125 147.425781 C 331.039062 147.089844 331.429688 146.828125 331.871094 146.644531 C 332.3125 146.460938 332.773438 146.371094 333.253906 146.371094 C 333.730469 146.371094 334.191406 146.460938 334.632812 146.644531 C 335.074219 146.828125 335.464844 147.089844 335.800781 147.425781 C 336.140625 147.765625 336.402344 148.15625 336.585938 148.597656 C 336.765625 149.039062 336.859375 149.5 336.859375 149.976562 Z M 336.859375 149.976562 " fill-opacity="1" fill-rule="nonzero"/><g fill="#000000" fill-opacity="1"><g transform="translate(112.628749, 280.444465)"><g><path d="M 16.929688 -19.003906 L 16.929688 -23.796875 L 2.71875 -23.796875 L 2.71875 0 L 7.851562 0 L 7.851562 -9.113281 L 16.046875 -9.113281 L 16.046875 -13.769531 L 7.851562 -13.769531 L 7.851562 -19.003906 Z M 16.929688 -19.003906 "/></g></g></g><g fill="#000000" fill-opacity="1"><g transform="translate(130.136663, 280.444465)"><g><path d="M 2.71875 0 L 7.851562 0 L 7.851562 -23.796875 L 2.71875 -23.796875 Z M 2.71875 0 "/></g></g></g><g fill="#000000" fill-opacity="1"><g transform="translate(140.063451, 280.444465)"><g><path d="M 8.636719 -4.757812 L 18.460938 -22.847656 L 18.460938 -23.796875 L 1.429688 -23.796875 L 1.429688 -19.003906 L 10.8125 -19.003906 L 0.882812 -0.746094 L 0.882812 0 L 18.867188 0 L 18.867188 -4.757812 Z M 8.636719 -4.757812 "/></g></g></g><g fill="#000000" fill-opacity="1"><g transform="translate(159.203178, 280.444465)"><g><path d="M 8.636719 -4.757812 L 18.460938 -22.847656 L 18.460938 -23.796875 L 1.429688 -23.796875 L 1.429688 -19.003906 L 10.8125 -19.003906 L 0.882812 -0.746094 L 0.882812 0 L 18.867188 0 L 18.867188 -4.757812 Z M 8.636719 -4.757812 "/></g></g></g><g fill="#ff1616" fill-opacity="1"><g transform="translate(178.33578, 280.444465)"><g><path d="M 17.03125 -12.546875 C 18.699219 -13.699219 19.71875 -15.605469 19.71875 -17.644531 C 19.71875 -21.144531 16.660156 -23.765625 12.546875 -23.765625 L 2.71875 -23.765625 L 2.71875 0.0351562 L 12.816406 0.0351562 C 16.964844 0.0351562 20.332031 -3.027344 20.332031 -6.832031 C 20.332031 -9.382812 19.105469 -11.421875 17.03125 -12.546875 Z M 14.722656 -16.863281 C 14.722656 -15.367188 13.667969 -14.3125 12.070312 -14.3125 L 7.75 -14.3125 L 7.75 -19.378906 L 12.070312 -19.378906 C 13.667969 -19.378906 14.722656 -18.359375 14.722656 -16.863281 Z M 12.339844 -4.691406 L 7.75 -4.691406 L 7.75 -10.027344 L 12.339844 -10.027344 C 14.039062 -10.027344 15.164062 -8.90625 15.164062 -7.378906 C 15.164062 -5.8125 14.039062 -4.691406 12.339844 -4.691406 Z M 12.339844 -4.691406 "/></g></g></g><g fill="#ff1616" fill-opacity="1"><g transform="translate(199.481278, 280.444465)"><g><path d="M 12.308594 0.542969 C 17.917969 0.542969 22.132812 -3.367188 22.132812 -8.941406 L 22.132812 -23.796875 L 16.964844 -23.796875 L 16.964844 -9.179688 C 16.964844 -6.222656 15.027344 -4.316406 12.308594 -4.316406 C 9.554688 -4.316406 7.617188 -6.222656 7.617188 -9.179688 L 7.617188 -23.796875 L 2.449219 -23.796875 L 2.449219 -8.941406 C 2.449219 -3.367188 6.664062 0.542969 12.308594 0.542969 Z M 12.308594 0.542969 "/></g></g></g><g fill="#ff1616" fill-opacity="1"><g transform="translate(223.414466, 280.444465)"><g><path d="M 8.636719 -4.757812 L 18.460938 -22.847656 L 18.460938 -23.796875 L 1.429688 -23.796875 L 1.429688 -19.003906 L 10.8125 -19.003906 L 0.882812 -0.746094 L 0.882812 0 L 18.867188 0 L 18.867188 -4.757812 Z M 8.636719 -4.757812 "/></g></g></g><g fill="#ff1616" fill-opacity="1"><g transform="translate(242.554193, 280.444465)"><g><path d="M 8.636719 -4.757812 L 18.460938 -22.847656 L 18.460938 -23.796875 L 1.429688 -23.796875 L 1.429688 -19.003906 L 10.8125 -19.003906 L 0.882812 -0.746094 L 0.882812 0 L 18.867188 0 L 18.867188 -4.757812 Z M 8.636719 -4.757812 "/></g></g></g><g fill="#000000" fill-opacity="1"><g transform="translate(24.816556, 317.455702)"><g><path d="M 14.523438 -11.710938 L 12.265625 -3.933594 L 9.121094 -11.578125 L 8.265625 -11.578125 L 5.1875 -3.914062 L 2.878906 -11.710938 L 0.199219 -11.710938 L 3.882812 0 L 6.140625 0 L 8.683594 -6.558594 L 11.292969 0 L 13.554688 0 L 17.167969 -11.710938 Z M 14.523438 -11.710938 "/></g></g></g><g fill="#000000" fill-opacity="1"><g transform="translate(44.232968, 317.455702)"><g><path d="M 8.28125 -11.710938 L 8.28125 -7.195312 L 3.863281 -7.195312 L 3.863281 -11.710938 L 1.339844 -11.710938 L 1.339844 0 L 3.863281 0 L 3.863281 -4.835938 L 8.28125 -4.835938 L 8.28125 0 L 10.808594 0 L 10.808594 -11.710938 Z M 8.28125 -11.710938 "/></g></g></g><g fill="#000000" fill-opacity="1"><g transform="translate(58.398463, 317.455702)"><g><path d="M 3.863281 -2.34375 L 3.863281 -4.753906 L 7.929688 -4.753906 L 7.929688 -7.042969 L 3.863281 -7.042969 L 3.863281 -9.371094 L 8.367188 -9.371094 L 8.367188 -11.710938 L 1.339844 -11.710938 L 1.339844 0 L 8.550781 0 L 8.550781 -2.34375 Z M 3.863281 -2.34375 "/></g></g></g><g fill="#000000" fill-opacity="1"><g transform="translate(69.754549, 317.455702)"><g><path d="M 8.75 -11.710938 L 8.75 -4.566406 L 3.613281 -11.710938 L 1.339844 -11.710938 L 1.339844 0 L 3.816406 0 L 3.816406 -7.3125 L 9.121094 0 L 11.246094 0 L 11.246094 -11.710938 Z M 8.75 -11.710938 "/></g></g></g><g fill="#000000" fill-opacity="1"><g transform="translate(84.338109, 317.455702)"><g/></g></g><g fill="#000000" fill-opacity="1"><g transform="translate(90.342938, 317.455702)"><g><path d="M 1.339844 0 L 3.863281 0 L 3.863281 -11.710938 L 1.339844 -11.710938 Z M 1.339844 0 "/></g></g></g><g fill="#000000" fill-opacity="1"><g transform="translate(97.56852, 317.455702)"><g><path d="M 9.402344 -11.710938 L 0.351562 -11.710938 L 0.351562 -9.351562 L 3.613281 -9.351562 L 3.613281 0 L 6.140625 0 L 6.140625 -9.351562 L 9.402344 -9.351562 Z M 9.402344 -11.710938 "/></g></g></g><g fill="#000000" fill-opacity="1"><g transform="translate(109.34267, 317.455702)"><g/></g></g><g fill="#000000" fill-opacity="1"><g transform="translate(115.347499, 317.455702)"><g><path d="M 6.710938 0.269531 C 9.605469 0.269531 11.878906 -1.671875 12.414062 -4.566406 L 9.855469 -4.566406 C 9.4375 -3.09375 8.25 -2.160156 6.710938 -2.160156 C 4.71875 -2.160156 3.230469 -3.730469 3.230469 -5.839844 C 3.230469 -7.949219 4.71875 -9.539062 6.710938 -9.539062 C 8.183594 -9.539062 9.351562 -8.667969 9.839844 -7.296875 L 12.367188 -7.296875 C 11.828125 -10.074219 9.554688 -11.964844 6.710938 -11.964844 C 3.261719 -11.964844 0.652344 -9.320312 0.652344 -5.839844 C 0.652344 -2.375 3.261719 0.269531 6.710938 0.269531 Z M 6.710938 0.269531 "/></g></g></g><g fill="#000000" fill-opacity="1"><g transform="translate(130.248793, 317.455702)"><g><path d="M 6.894531 0.269531 C 10.457031 0.269531 13.117188 -2.359375 13.117188 -5.855469 C 13.117188 -9.335938 10.457031 -11.964844 6.894531 -11.964844 C 3.3125 -11.964844 0.636719 -9.320312 0.636719 -5.855469 C 0.636719 -2.375 3.3125 0.269531 6.894531 0.269531 Z M 6.894531 -2.125 C 4.800781 -2.125 3.210938 -3.75 3.210938 -5.855469 C 3.210938 -7.964844 4.800781 -9.570312 6.894531 -9.570312 C 8.984375 -9.570312 10.542969 -7.980469 10.542969 -5.855469 C 10.542969 -3.730469 8.984375 -2.125 6.894531 -2.125 Z M 6.894531 -2.125 "/></g></g></g><g fill="#000000" fill-opacity="1"><g transform="translate(146.019666, 317.455702)"><g><path d="M 6.058594 0.269531 C 8.816406 0.269531 10.894531 -1.65625 10.894531 -4.402344 L 10.894531 -11.710938 L 8.347656 -11.710938 L 8.347656 -4.519531 C 8.347656 -3.0625 7.394531 -2.125 6.058594 -2.125 C 4.703125 -2.125 3.75 -3.0625 3.75 -4.519531 L 3.75 -11.710938 L 1.203125 -11.710938 L 1.203125 -4.402344 C 1.203125 -1.65625 3.28125 0.269531 6.058594 0.269531 Z M 6.058594 0.269531 "/></g></g></g><g fill="#000000" fill-opacity="1"><g transform="translate(160.134991, 317.455702)"><g><path d="M 8.75 -11.710938 L 8.75 -4.566406 L 3.613281 -11.710938 L 1.339844 -11.710938 L 1.339844 0 L 3.816406 0 L 3.816406 -7.3125 L 9.121094 0 L 11.246094 0 L 11.246094 -11.710938 Z M 8.75 -11.710938 "/></g></g></g><g fill="#000000" fill-opacity="1"><g transform="translate(174.718551, 317.455702)"><g><path d="M 9.402344 -11.710938 L 0.351562 -11.710938 L 0.351562 -9.351562 L 3.613281 -9.351562 L 3.613281 0 L 6.140625 0 L 6.140625 -9.351562 L 9.402344 -9.351562 Z M 9.402344 -11.710938 "/></g></g></g><g fill="#000000" fill-opacity="1"><g transform="translate(186.492701, 317.455702)"><g><path d="M 5.21875 0.234375 C 7.648438 0.234375 9.65625 -0.988281 9.65625 -3.515625 C 9.65625 -6.140625 7.414062 -6.691406 5.640625 -7.144531 C 4.382812 -7.445312 3.378906 -7.695312 3.378906 -8.515625 C 3.378906 -9.285156 4.199219 -9.636719 5.019531 -9.636719 C 5.972656 -9.636719 6.808594 -9.167969 6.808594 -8.148438 L 9.304688 -8.148438 C 9.304688 -10.492188 7.78125 -11.929688 5.085938 -11.929688 C 2.492188 -11.929688 0.835938 -10.660156 0.835938 -8.417969 C 0.835938 -5.890625 2.976562 -5.371094 4.753906 -4.9375 C 6.023438 -4.652344 7.09375 -4.402344 7.09375 -3.480469 C 7.09375 -2.609375 6.15625 -2.109375 5.203125 -2.109375 C 4.167969 -2.109375 3.230469 -2.660156 3.230469 -3.78125 L 0.667969 -3.78125 C 0.667969 -1.273438 2.527344 0.234375 5.21875 0.234375 Z M 5.21875 0.234375 "/></g></g></g><g fill="#000000" fill-opacity="1"><g transform="translate(198.852148, 317.455702)"><g/></g></g><g fill="#000000" fill-opacity="1"><g transform="translate(204.856977, 317.455702)"><g><path d="M 11.09375 -11.710938 L 8.382812 -11.710938 L 5.671875 -7.011719 L 2.976562 -11.710938 L 0.285156 -11.710938 L 4.367188 -4.734375 L 4.367188 0 L 6.960938 0 L 6.960938 -4.71875 Z M 11.09375 -11.710938 "/></g></g></g><g fill="#000000" fill-opacity="1"><g transform="translate(218.219773, 317.455702)"><g><path d="M 6.894531 0.269531 C 10.457031 0.269531 13.117188 -2.359375 13.117188 -5.855469 C 13.117188 -9.335938 10.457031 -11.964844 6.894531 -11.964844 C 3.3125 -11.964844 0.636719 -9.320312 0.636719 -5.855469 C 0.636719 -2.375 3.3125 0.269531 6.894531 0.269531 Z M 6.894531 -2.125 C 4.800781 -2.125 3.210938 -3.75 3.210938 -5.855469 C 3.210938 -7.964844 4.800781 -9.570312 6.894531 -9.570312 C 8.984375 -9.570312 10.542969 -7.980469 10.542969 -5.855469 C 10.542969 -3.730469 8.984375 -2.125 6.894531 -2.125 Z M 6.894531 -2.125 "/></g></g></g><g fill="#000000" fill-opacity="1"><g transform="translate(233.990646, 317.455702)"><g><path d="M 6.058594 0.269531 C 8.816406 0.269531 10.894531 -1.65625 10.894531 -4.402344 L 10.894531 -11.710938 L 8.347656 -11.710938 L 8.347656 -4.519531 C 8.347656 -3.0625 7.394531 -2.125 6.058594 -2.125 C 4.703125 -2.125 3.75 -3.0625 3.75 -4.519531 L 3.75 -11.710938 L 1.203125 -11.710938 L 1.203125 -4.402344 C 1.203125 -1.65625 3.28125 0.269531 6.058594 0.269531 Z M 6.058594 0.269531 "/></g></g></g><g fill="#000000" fill-opacity="1"><g transform="translate(248.105971, 317.455702)"><g/></g></g><g fill="#000000" fill-opacity="1"><g transform="translate(254.1108, 317.455702)"><g><path d="M 8.332031 -9.351562 L 8.332031 -11.710938 L 1.339844 -11.710938 L 1.339844 0 L 3.863281 0 L 3.863281 -4.484375 L 7.898438 -4.484375 L 7.898438 -6.777344 L 3.863281 -6.777344 L 3.863281 -9.351562 Z M 8.332031 -9.351562 "/></g></g></g><g fill="#000000" fill-opacity="1"><g transform="translate(265.065542, 317.455702)"><g><path d="M 1.339844 0 L 3.863281 0 L 3.863281 -11.710938 L 1.339844 -11.710938 Z M 1.339844 0 "/></g></g></g><g fill="#000000" fill-opacity="1"><g transform="translate(272.291135, 317.455702)"><g><path d="M 4.25 -2.34375 L 9.085938 -11.246094 L 9.085938 -11.710938 L 0.703125 -11.710938 L 0.703125 -9.351562 L 5.320312 -9.351562 L 0.433594 -0.367188 L 0.433594 0 L 9.285156 0 L 9.285156 -2.34375 Z M 4.25 -2.34375 "/></g></g></g><g fill="#000000" fill-opacity="1"><g transform="translate(284.048565, 317.455702)"><g><path d="M 4.25 -2.34375 L 9.085938 -11.246094 L 9.085938 -11.710938 L 0.703125 -11.710938 L 0.703125 -9.351562 L 5.320312 -9.351562 L 0.433594 -0.367188 L 0.433594 0 L 9.285156 0 L 9.285156 -2.34375 Z M 4.25 -2.34375 "/></g></g></g><g fill="#000000" fill-opacity="1"><g transform="translate(295.805995, 317.455702)"><g/></g></g><g fill="#000000" fill-opacity="1"><g transform="translate(301.810824, 317.455702)"><g><path d="M 8.382812 -6.175781 C 9.203125 -6.742188 9.703125 -7.679688 9.703125 -8.683594 C 9.703125 -10.40625 8.199219 -11.695312 6.175781 -11.695312 L 1.339844 -11.695312 L 1.339844 0.015625 L 6.308594 0.015625 C 8.347656 0.015625 10.007812 -1.488281 10.007812 -3.363281 C 10.007812 -4.617188 9.402344 -5.621094 8.382812 -6.175781 Z M 7.246094 -8.300781 C 7.246094 -7.5625 6.726562 -7.042969 5.941406 -7.042969 L 3.816406 -7.042969 L 3.816406 -9.539062 L 5.941406 -9.539062 C 6.726562 -9.539062 7.246094 -9.035156 7.246094 -8.300781 Z M 6.074219 -2.308594 L 3.816406 -2.308594 L 3.816406 -4.9375 L 6.074219 -4.9375 C 6.910156 -4.9375 7.460938 -4.382812 7.460938 -3.632812 C 7.460938 -2.859375 6.910156 -2.308594 6.074219 -2.308594 Z M 6.074219 -2.308594 "/></g></g></g><g fill="#000000" fill-opacity="1"><g transform="translate(314.554895, 317.455702)"><g><path d="M 6.058594 0.269531 C 8.816406 0.269531 10.894531 -1.65625 10.894531 -4.402344 L 10.894531 -11.710938 L 8.347656 -11.710938 L 8.347656 -4.519531 C 8.347656 -3.0625 7.394531 -2.125 6.058594 -2.125 C 4.703125 -2.125 3.75 -3.0625 3.75 -4.519531 L 3.75 -11.710938 L 1.203125 -11.710938 L 1.203125 -4.402344 C 1.203125 -1.65625 3.28125 0.269531 6.058594 0.269531 Z M 6.058594 0.269531 "/></g></g></g><g fill="#000000" fill-opacity="1"><g transform="translate(328.670221, 317.455702)"><g><path d="M 4.25 -2.34375 L 9.085938 -11.246094 L 9.085938 -11.710938 L 0.703125 -11.710938 L 0.703125 -9.351562 L 5.320312 -9.351562 L 0.433594 -0.367188 L 0.433594 0 L 9.285156 0 L 9.285156 -2.34375 Z M 4.25 -2.34375 "/></g></g></g><g fill="#000000" fill-opacity="1"><g transform="translate(340.427651, 317.455702)"><g><path d="M 4.25 -2.34375 L 9.085938 -11.246094 L 9.085938 -11.710938 L 0.703125 -11.710938 L 0.703125 -9.351562 L 5.320312 -9.351562 L 0.433594 -0.367188 L 0.433594 0 L 9.285156 0 L 9.285156 -2.34375 Z M 4.25 -2.34375 "/></g></g></g></svg>